# xmcd
#
# Track frame offsets: 
#        157
#        2256
#        22207
#        38364
#        49693
#        76562
#        91298
#        112931
#        133388
#        152990
#        175346
#        200385
#        202993
#
# Disc length: 3052 seconds
#
# Revision: 0
# Processed by: cddbd v1.5.2PL0 Copyright (c) Steve Scherf et al.
# Submitted via: ExactAudioCopyFreeDBPlugin 1.0
#
DISCID=970bea0d
DTITLE=liv warfield - the unexpected
DYEAR=2013
DGENRE=Soul
TTITLE0=coat of arms
TTITLE1=the unexpected
TTITLE2=why do you lie
TTITLE3=blackbird
TTITLE4=stay-soul lifted
TTITLE5=catch me if you can
TTITLE6=don't say much
TTITLE7=lena blue
TTITLE8=freedom
TTITLE9=come back
TTITLE10=your show
TTITLE11=fanfare
TTITLE12=fly
EXTD=
EXTT0=
EXTT1=
EXTT2=
EXTT3=
EXTT4=
EXTT5=
EXTT6=
EXTT7=
EXTT8=
EXTT9=
EXTT10=
EXTT11=
EXTT12=
PLAYORDER=
